<?xml version="1.0" standalone="no"?>
<!DOCTYPE svg PUBLIC "-//W3C//DTD SVG 20010904//EN"
 "http://www.w3.org/TR/2001/REC-SVG-20010904/DTD/svg10.dtd">
<svg version="1.0" xmlns="http://www.w3.org/2000/svg"
 width="50.000000pt" height="50.000000pt" viewBox="0 0 50.000000 50.000000"
 preserveAspectRatio="xMidYMid meet">

<g transform="translate(0.000000,50.000000) scale(0.100000,-0.100000)"
fill="#000000" stroke="none">
<path d="M70 452 c0 -15 4 -41 9 -58 9 -31 -1 -173 -14 -215 -6 -18 -4 -21 9
-16 19 7 21 -14 5 -45 -14 -25 -6 -33 20 -19 19 10 20 9 12 -11 -4 -13 -18
-27 -29 -33 -35 -15 -26 -27 16 -19 63 11 107 36 110 64 3 22 8 25 42 25 34 0
40 -3 40 -21 0 -12 6 -27 14 -34 13 -10 107 -40 129 -40 15 0 6 16 -15 25 -11
6 -25 20 -29 33 -8 20 -7 21 12 11 26 -14 34 -6 20 19 -17 31 -14 52 6 45 13
-5 15 -3 9 13 -14 34 -24 187 -15 218 5 17 9 43 9 58 0 31 -19 36 -67 17 -39
-16 -181 -17 -220 -2 -53 21 -73 17 -73 -15z m79 -8 c2 -2 -7 -15 -21 -29 -22
-22 -27 -23 -32 -9 -3 8 -6 25 -6 36 0 17 4 19 27 13 16 -4 30 -8 32 -11z
m261 -6 c0 -41 -13 -49 -38 -23 -21 22 -22 24 -5 34 29 17 43 13 43 -11z m-65
-129 c23 -44 12 -89 -23 -90 l-27 -1 25 -8 25 -8 -25 -2 c-22 -1 -23 -2 -6 -9
17 -7 15 -10 -16 -29 -44 -27 -52 -27 -96 0 -31 19 -33 22 -16 29 17 7 16 8
-6 9 l-25 2 25 8 25 8 -26 1 c-34 1 -44 34 -22 72 12 21 20 25 29 18 9 -7 20
-5 38 6 23 16 24 15 19 -4 -7 -27 6 -26 48 3 19 13 35 25 36 25 1 1 10 -13 18
-30z"/>
<path d="M160 272 c0 -16 24 -32 47 -32 21 0 22 3 13 20 -10 19 -60 29 -60 12z"/>
<path d="M282 268 c-19 -19 -14 -28 17 -28 24 0 41 14 41 36 0 9 -47 3 -58 -8z"/>
<path d="M238 173 c6 -2 18 -2 25 0 6 3 1 5 -13 5 -14 0 -19 -2 -12 -5z"/>
</g>
</svg>
